<svg version="1.1" id="Layer_1" xmlns="http://www.w3.org/2000/svg" xmlns:xlink="http://www.w3.org/1999/xlink" x="0px" y="0px"
	 width="100%" viewBox="0 0 127 93" enable-background="new 0 0 127 93" xml:space="preserve">
<path fill="#FFFFFF" opacity="1.000000" stroke="none" 
	d="
M96.000000,94.000000 
	C64.000000,94.000000 32.500000,94.000000 1.000000,94.000000 
	C1.000000,63.000000 1.000000,32.000000 1.000000,1.000000 
	C43.333332,1.000000 85.666664,1.000000 128.000000,1.000000 
	C128.000000,32.000000 128.000000,63.000000 128.000000,94.000000 
	C117.500000,94.000000 107.000000,94.000000 96.000000,94.000000 
M16.603651,84.132660 
	C18.754879,84.755020 20.903757,85.909554 23.057693,85.919067 
	C50.705837,86.041199 78.355225,86.095741 106.003098,85.946030 
	C115.295258,85.895721 120.999893,79.666367 120.999969,70.378799 
	C121.000061,59.719067 121.000175,49.059334 120.999954,38.399601 
	C120.999733,27.567936 110.637070,19.828884 100.050591,22.371063 
	C89.188286,24.979479 80.603561,31.394215 71.893959,38.637852 
	C76.477463,40.186100 81.085846,41.213387 85.739937,41.953072 
	C88.337601,42.365925 91.051056,41.972988 91.057205,45.969555 
	C91.063278,49.911339 88.364540,50.403339 85.811310,49.899853 
	C78.281548,48.415024 70.842354,46.470844 61.937660,44.368851 
	C56.449493,47.274574 49.107357,51.076214 40.550571,50.879547 
	C39.373093,50.852489 37.471539,49.362381 37.272102,48.294365 
	C37.035645,47.028133 37.983974,45.205379 38.978710,44.153080 
	C39.742199,43.345402 41.380291,43.380600 42.617355,43.001553 
	C47.004459,41.657291 51.386395,40.296139 56.489315,38.719185 
	C54.144588,36.901211 52.517578,35.573536 50.823627,34.337612 
	C42.927372,28.576416 35.136757,22.855955 24.589954,22.738398 
	C16.957144,22.653320 7.143986,27.135492 7.839235,37.679585 
	C8.560936,48.624847 8.331431,59.668457 7.875453,70.642365 
	C7.602784,77.204643 10.242697,81.280609 16.603651,84.132660 
M48.531837,22.800079 
	C52.998947,26.010668 57.396435,29.327229 61.990223,32.344986 
	C62.941662,32.970005 64.997818,33.035866 65.903885,32.418610 
	C70.514671,29.277521 74.914749,25.827145 79.937172,22.075258 
	C69.156952,22.075258 58.973896,22.075258 48.531837,22.800079 
z"/>
<path fill="#ED1C24" opacity="1.000000" stroke="none" 
	d="
M16.215973,84.053787 
	C10.242697,81.280609 7.602784,77.204643 7.875453,70.642365 
	C8.331431,59.668457 8.560936,48.624847 7.839235,37.679585 
	C7.143986,27.135492 16.957144,22.653320 24.589954,22.738398 
	C35.136757,22.855955 42.927372,28.576416 50.823627,34.337612 
	C52.517578,35.573536 54.144588,36.901211 56.489315,38.719185 
	C51.386395,40.296139 47.004459,41.657291 42.617355,43.001553 
	C41.380291,43.380600 39.742199,43.345402 38.978710,44.153080 
	C37.983974,45.205379 37.035645,47.028133 37.272102,48.294365 
	C37.471539,49.362381 39.373093,50.852489 40.550571,50.879547 
	C49.107357,51.076214 56.449493,47.274574 61.937660,44.368851 
	C70.842354,46.470844 78.281548,48.415024 85.811310,49.899853 
	C88.364540,50.403339 91.063278,49.911339 91.057205,45.969555 
	C91.051056,41.972988 88.337601,42.365925 85.739937,41.953072 
	C81.085846,41.213387 76.477463,40.186100 71.893959,38.637852 
	C80.603561,31.394215 89.188286,24.979479 100.050591,22.371063 
	C110.637070,19.828884 120.999733,27.567936 120.999954,38.399601 
	C121.000175,49.059334 121.000061,59.719067 120.999969,70.378799 
	C120.999893,79.666367 115.295258,85.895721 106.003098,85.946030 
	C78.355225,86.095741 50.705837,86.041199 23.057693,85.919067 
	C20.903757,85.909554 18.754879,84.755020 16.215973,84.053787 
z"/>
<path fill="#ED1C24" opacity="1.000000" stroke="none" 
	d="
M48.661339,22.437668 
	C58.973896,22.075258 69.156952,22.075258 79.937172,22.075258 
	C74.914749,25.827145 70.514671,29.277521 65.903885,32.418610 
	C64.997818,33.035866 62.941662,32.970005 61.990223,32.344986 
	C57.396435,29.327229 52.998947,26.010668 48.661339,22.437668 
z"/>
</svg>